<svg preserveAspectRatio="none" overflow="visible" style="display: block;" width="18.3344" height="20.326" viewBox="0 0 18.3344 20.326" fill="none" xmlns="http://www.w3.org/2000/svg">
<path id="Ic&#195;&#180;ne" d="M0.5 16.326H6V17.576C6 19.0947 4.76878 20.326 3.25 20.326C1.73122 20.326 0.5 19.0947 0.5 17.576V16.326ZM4.55848 12.326L4.60263 12.1935C5.36974 10.0881 5.5 9.69733 5.5 9.32603C5.5 8.57653 5.29747 7.68341 4.97234 7.05276C4.73039 6.58346 4.56 6.4466 4.5 6.4466C3.22086 6.4466 2 7.81044 2 9.32603C2 10.2848 2.07517 11.0992 2.22674 12.0843C2.2328 12.1237 2.24709 12.2132 2.26512 12.326H4.55848ZM4.5 4.4466C6.5 4.4466 7.5 7.32599 7.5 9.32603C7.5 10.326 7 11.326 6.5 12.826L6 14.326H0.5C0.5 13.326 0 11.826 0 9.32603C0 6.82599 1.99783 4.4466 4.5 4.4466ZM16.554 12.4243L16.3369 13.6553C16.0732 15.151 14.6468 16.1497 13.1511 15.886C11.6554 15.6223 10.6567 14.1959 10.9205 12.7002L11.1375 11.4692L16.554 12.4243ZM15.5045 8.17757C15.6695 7.6778 15.8054 7.28346 15.8071 7.2778C16.0089 6.61968 16.168 5.97485 16.2923 5.27019C16.5555 3.77766 15.59 2.22255 14.3303 2.00043C14.2712 1.99001 14.0796 2.0952 13.7598 2.51536C13.3301 3.07997 12.9756 3.92432 12.8455 4.66242C12.7872 4.99263 12.7964 5.06666 13.1158 6.92541C13.1596 7.18063 13.197 7.41116 13.2312 7.64223L13.2517 7.78034L15.5045 8.17757ZM14.6776 0.0308116C17.1417 0.465312 18.696 3.15547 18.2619 5.61749C17.8278 8.07951 17.0749 9.46993 16.9013 10.4547L11.4848 9.49963L11.2529 7.9356C11.0209 6.37157 10.7022 5.29993 10.8758 4.31513C11.2231 2.34551 12.7079 -0.316478 14.6776 0.0308116Z" fill="currentColor"/>
</svg>
